<svg width="141" height="34" viewBox="0 0 141 34" fill="none" xmlns="http://www.w3.org/2000/svg">
<path d="M18.264 15.3295C18.264 17.5695 17.528 19.5055 16.056 21.1375L17.832 22.9615L15.888 24.7135L14.04 22.8175C12.632 23.6335 11.136 24.0415 9.552 24.0415C7.136 24.0415 5.08 23.2015 3.384 21.5215C1.688 19.8255 0.84 17.7615 0.84 15.3295C0.84 12.8975 1.688 10.8415 3.384 9.16149C5.08 7.46549 7.136 6.61749 9.552 6.61749C11.968 6.61749 14.024 7.46549 15.72 9.16149C17.416 10.8415 18.264 12.8975 18.264 15.3295ZM9.552 21.3535C10.448 21.3535 11.288 21.1695 12.072 20.8015L9 17.6575L10.944 15.9055L14.16 19.1935C15.056 18.0895 15.504 16.8015 15.504 15.3295C15.504 13.6175 14.928 12.1855 13.776 11.0335C12.624 9.88149 11.216 9.30549 9.552 9.30549C7.888 9.30549 6.48 9.88149 5.328 11.0335C4.176 12.1855 3.6 13.6175 3.6 15.3295C3.6 17.0415 4.176 18.4735 5.328 19.6255C6.48 20.7775 7.888 21.3535 9.552 21.3535ZM31.5341 22.4575C30.3501 23.5135 28.8221 24.0415 26.9501 24.0415C25.0781 24.0415 23.5501 23.5135 22.3661 22.4575C21.1821 21.3855 20.5901 19.9535 20.5901 18.1615V6.92949H23.3501V17.9935C23.3501 19.0175 23.6461 19.8335 24.2381 20.4415C24.8461 21.0495 25.7501 21.3535 26.9501 21.3535C28.1501 21.3535 29.0461 21.0495 29.6381 20.4415C30.2461 19.8335 30.5501 19.0175 30.5501 17.9935V6.92949H33.3101V18.1615C33.3101 19.9535 32.7181 21.3855 31.5341 22.4575ZM36.4847 6.92949H39.2447V23.7295H36.4847V6.92949ZM50.5459 24.0415C48.0179 24.0415 45.9219 23.2095 44.2579 21.5455C42.5939 19.8655 41.7619 17.7935 41.7619 15.3295C41.7619 12.8655 42.5939 10.8015 44.2579 9.13749C45.9219 7.45749 48.0179 6.61749 50.5459 6.61749C52.0659 6.61749 53.4659 6.97749 54.7459 7.69749C56.0419 8.41749 57.0499 9.39349 57.7699 10.6255L55.3699 12.0175C54.9219 11.1855 54.2659 10.5295 53.4019 10.0495C52.5539 9.55349 51.6019 9.30549 50.5459 9.30549C48.7539 9.30549 47.2979 9.87349 46.1779 11.0095C45.0739 12.1455 44.5219 13.5855 44.5219 15.3295C44.5219 17.0735 45.0739 18.5135 46.1779 19.6495C47.2979 20.7855 48.7539 21.3535 50.5459 21.3535C51.6019 21.3535 52.5619 21.1135 53.4259 20.6335C54.2899 20.1375 54.9379 19.4735 55.3699 18.6415L57.7699 20.0095C57.0659 21.2415 56.0659 22.2255 54.7699 22.9615C53.4899 23.6815 52.0819 24.0415 50.5459 24.0415ZM72.7348 23.7295H69.4468L62.8228 15.7375V23.7295H60.0628V6.92949H62.8228V14.4655L69.2068 6.92949H72.4948L65.7028 15.1135L72.7348 23.7295ZM84.3638 9.56949H77.2838V14.2735H84.1238V16.9135H77.2838V23.7295H74.5238V6.92949H84.3638V9.56949ZM100.986 21.5215C99.3056 23.2015 97.2496 24.0415 94.8176 24.0415C92.3856 24.0415 90.3216 23.2015 88.6256 21.5215C86.9456 19.8255 86.1056 17.7615 86.1056 15.3295C86.1056 12.8975 86.9456 10.8415 88.6256 9.16149C90.3216 7.46549 92.3856 6.61749 94.8176 6.61749C97.2496 6.61749 99.3056 7.46549 100.986 9.16149C102.682 10.8415 103.53 12.8975 103.53 15.3295C103.53 17.7615 102.682 19.8255 100.986 21.5215ZM90.5696 19.6495C91.7216 20.7855 93.1376 21.3535 94.8176 21.3535C96.4976 21.3535 97.9056 20.7855 99.0416 19.6495C100.194 18.4975 100.77 17.0575 100.77 15.3295C100.77 13.6015 100.194 12.1695 99.0416 11.0335C97.9056 9.88149 96.4976 9.30549 94.8176 9.30549C93.1376 9.30549 91.7216 9.88149 90.5696 11.0335C89.4336 12.1695 88.8656 13.6015 88.8656 15.3295C88.8656 17.0575 89.4336 18.4975 90.5696 19.6495ZM120.087 21.5215C118.407 23.2015 116.351 24.0415 113.919 24.0415C111.487 24.0415 109.423 23.2015 107.727 21.5215C106.047 19.8255 105.207 17.7615 105.207 15.3295C105.207 12.8975 106.047 10.8415 107.727 9.16149C109.423 7.46549 111.487 6.61749 113.919 6.61749C116.351 6.61749 118.407 7.46549 120.087 9.16149C121.783 10.8415 122.631 12.8975 122.631 15.3295C122.631 17.7615 121.783 19.8255 120.087 21.5215ZM109.671 19.6495C110.823 20.7855 112.239 21.3535 113.919 21.3535C115.599 21.3535 117.007 20.7855 118.143 19.6495C119.295 18.4975 119.871 17.0575 119.871 15.3295C119.871 13.6015 119.295 12.1695 118.143 11.0335C117.007 9.88149 115.599 9.30549 113.919 9.30549C112.239 9.30549 110.823 9.88149 109.671 11.0335C108.535 12.1695 107.967 13.6015 107.967 15.3295C107.967 17.0575 108.535 18.4975 109.671 19.6495ZM131.749 6.92949C134.053 6.92949 135.965 7.73749 137.485 9.35349C139.021 10.9695 139.789 12.9615 139.789 15.3295C139.789 17.6815 139.021 19.6735 137.485 21.3055C135.965 22.9215 134.053 23.7295 131.749 23.7295H125.149V6.92949H131.749ZM131.749 21.0895C133.333 21.0895 134.621 20.5455 135.613 19.4575C136.621 18.3695 137.125 16.9935 137.125 15.3295C137.125 13.6495 136.621 12.2735 135.613 11.2015C134.621 10.1135 133.333 9.56949 131.749 9.56949H127.909V21.0895H131.749Z" fill="white"/>
<rect y="31.7295" width="141" height="2" fill="white"/>
</svg>
